
<svg xmlns="http://www.w3.org/2000/svg" viewBox="0 0 240 240" width="240" height="240">
  <defs>
    <pattern id="flecks" width="240" height="240" patternUnits="userSpaceOnUse">
      <g fill="#1A1A1A" opacity="0.06">
        <circle cx="12" cy="22" r="0.6"></circle>
        <circle cx="58" cy="9" r="0.5"></circle>
        <circle cx="91" cy="44" r="0.7"></circle>
        <circle cx="140" cy="18" r="0.4"></circle>
        <circle cx="178" cy="60" r="0.8"></circle>
        <circle cx="218" cy="32" r="0.5"></circle>
        <circle cx="32" cy="78" r="0.4"></circle>
        <circle cx="74" cy="102" r="0.7"></circle>
        <circle cx="118" cy="88" r="0.5"></circle>
        <circle cx="162" cy="120" r="0.6"></circle>
        <circle cx="206" cy="98" r="0.4"></circle>
        <circle cx="20" cy="148" r="0.7"></circle>
        <circle cx="62" cy="170" r="0.5"></circle>
        <circle cx="106" cy="156" r="0.4"></circle>
        <circle cx="152" cy="182" r="0.6"></circle>
        <circle cx="194" cy="166" r="0.5"></circle>
        <circle cx="232" cy="200" r="0.7"></circle>
        <circle cx="44" cy="214" r="0.5"></circle>
        <circle cx="88" cy="226" r="0.4"></circle>
        <circle cx="134" cy="220" r="0.6"></circle>
        <circle cx="178" cy="232" r="0.5"></circle>
      </g>
    </pattern>
  </defs>
  <rect width="240" height="240" fill="url(#flecks)"></rect>
</svg>